<svg width="21" height="23" viewBox="0 0 21 23" fill="none" xmlns="http://www.w3.org/2000/svg">
<path d="M20.8879 22.4271L19.1693 6.41594C19.1407 6.15816 18.9116 5.95766 18.6538 5.95766H15.4744V4.98381C15.4744 2.23412 13.2403 0 10.4906 0C7.74095 0 5.50683 2.23412 5.50683 4.98381V5.95766H2.24157C1.98379 5.95766 1.75465 6.15816 1.72601 6.41594L0.00745079 22.4271C-0.0211918 22.5704 0.0360933 22.7136 0.122021 22.8281C0.207949 22.9427 0.351162 23 0.494375 23H20.401C20.5442 23 20.6874 22.9427 20.7733 22.8281C20.8593 22.7136 20.9165 22.5704 20.8879 22.4271ZM14.9589 8.85056C15.2167 8.85056 15.4172 9.05106 15.4172 9.30884C15.4172 9.56662 15.2167 9.76712 14.9589 9.76712C14.7011 9.76712 14.5006 9.56662 14.5006 9.30884C14.5006 9.05106 14.7011 8.85056 14.9589 8.85056ZM6.53796 4.98381C6.53796 2.80697 8.3138 1.03113 10.4906 1.03113C12.6675 1.03113 14.4433 2.80697 14.4433 4.98381V5.95766H6.53796V4.98381ZM6.02239 8.85056C6.28018 8.85056 6.48067 9.05106 6.48067 9.30884C6.48067 9.56662 6.28018 9.76712 6.02239 9.76712C5.76461 9.76712 5.56411 9.56662 5.56411 9.30884C5.56411 9.05106 5.76461 8.85056 6.02239 8.85056ZM1.09587 21.9402L2.69985 6.96015H5.50683V7.90535C4.93398 8.10585 4.53298 8.65006 4.53298 9.2802C4.53298 10.0822 5.19176 10.741 5.99375 10.741C6.79574 10.741 7.45452 10.0822 7.45452 9.2802C7.45452 8.65006 7.05353 8.10585 6.48067 7.90535V6.96015H14.386V7.90535C13.8132 8.10585 13.4122 8.65006 13.4122 9.2802C13.4122 10.0822 14.071 10.741 14.873 10.741C15.6749 10.741 16.3337 10.0822 16.3337 9.2802C16.3337 8.65006 15.9327 8.10585 15.3599 7.90535V6.96015H18.2814L19.8854 21.9402H1.09587Z" fill="#64B734"/>
<path d="M10.8948 12.1052V19.3684" stroke="#64B734"/>
<path d="M14.5264 15.7368L7.26321 15.7368" stroke="#64B734"/>
</svg>
