<svg width="21" height="21" viewBox="0 0 21 21" fill="none" xmlns="http://www.w3.org/2000/svg">
<g clip-path="url(#clip0)">
<path d="M20.1682 4.6336L10.6334 0.0305771C10.5489 -0.0101924 10.4504 -0.0101924 10.366 0.0305771L0.831092 4.6336C0.724779 4.68491 0.657227 4.79257 0.657227 4.91062V16.0894C0.657227 16.2074 0.724779 16.3151 0.831092 16.3664L10.3659 20.9694C10.4082 20.9898 10.4539 21 10.4997 21C10.5454 21 10.5911 20.9898 10.6334 20.9694L20.1682 16.3664C20.2745 16.3151 20.3421 16.2074 20.3421 16.0894V4.91066C20.3421 4.79253 20.2745 4.68495 20.1682 4.6336ZM10.4997 0.649216L19.3269 4.91062L16.7681 6.14593C16.7519 6.13358 16.7348 6.12218 16.716 6.11311L7.9487 1.88071L10.4997 0.649216ZM7.25398 2.22852L16.0684 6.48373L14.2631 7.35527L5.45232 3.10179L7.25398 2.22852ZM16.2746 7.0673V10.2889L14.5883 11.103V7.88138L16.2746 7.0673ZM19.7269 15.8964L10.8073 20.2023V9.7067L12.9349 8.67958C13.0879 8.60571 13.152 8.42184 13.0782 8.26881C13.0043 8.11586 12.8204 8.05163 12.6674 8.12554L10.4997 9.17206L9.6467 8.76026C9.49367 8.68631 9.3098 8.75054 9.23593 8.90353C9.16206 9.05652 9.22621 9.24043 9.3792 9.3143L10.192 9.7067V20.2023L1.27246 15.8963V5.40071L8.06465 8.67971C8.10776 8.70054 8.15332 8.71039 8.19815 8.71039C8.31251 8.71039 8.42235 8.64632 8.47538 8.53644C8.54925 8.38345 8.4851 8.19954 8.33211 8.12567L1.6724 4.91062L4.72827 3.43537L13.9688 7.89635C13.9702 7.89824 13.9717 7.89992 13.9731 7.90176V11.5931C13.9731 11.699 14.0275 11.7974 14.1172 11.8537C14.167 11.885 14.2238 11.9007 14.2808 11.9007C14.3264 11.9007 14.3721 11.8906 14.4145 11.8701L16.716 10.7591C16.8223 10.7078 16.8899 10.6001 16.8899 10.4821V6.77035L19.7269 5.40075V15.8964Z" fill="#333333"/>
<path d="M3.81139 14.7033L2.41214 14.0278C2.25907 13.9538 2.07524 14.0181 2.00137 14.171C1.9275 14.324 1.99165 14.5079 2.14464 14.5818L3.54389 15.2573C3.587 15.2781 3.63256 15.288 3.67739 15.288C3.79175 15.288 3.90159 15.2239 3.95462 15.114C4.02853 14.961 3.96438 14.7772 3.81139 14.7033Z" fill="#333333"/>
<path d="M5.09916 13.865L2.41407 12.5688C2.26104 12.4949 2.07717 12.559 2.0033 12.7121C1.92947 12.8651 1.99362 13.049 2.14661 13.1228L4.8317 14.4191C4.8748 14.4399 4.92037 14.4498 4.9652 14.4498C5.07955 14.4498 5.18939 14.3857 5.24243 14.2758C5.3163 14.1228 5.25215 13.9388 5.09916 13.865Z" fill="#333333"/>
</g>
<defs>
<clipPath id="clip0">
<rect width="21" height="21" fill="white"/>
</clipPath>
</defs>
</svg>
