<svg width="21" height="13" viewBox="0 0 21 13" fill="none" xmlns="http://www.w3.org/2000/svg">
<path d="M2.625 7.80391C2.80621 7.80391 2.95312 7.95083 2.95312 8.13204V10.4312H3.47517C3.60384 9.29315 4.6307 8.47489 5.76872 8.60351C6.72956 8.71212 7.48777 9.47038 7.59642 10.4312H14.4375V0.915588H2.95312V1.94754C2.95312 2.12875 2.80621 2.27567 2.625 2.27567C2.44379 2.27567 2.29688 2.12875 2.29688 1.94754V0.587463C2.29688 0.406256 2.44379 0.259338 2.625 0.259338H14.7656C14.9468 0.259338 15.0938 0.406256 15.0938 0.587463V0.915588H18.8514C19.6752 0.916655 20.3427 1.58414 20.3438 2.4079V2.88434C20.3438 3.06554 20.1968 3.21246 20.0156 3.21246H19.634L19.8844 6.21973C20.5396 6.39027 20.9977 6.98081 21 7.6579V10.4312C21 10.6124 20.8531 10.7593 20.6719 10.7593H20.0074C19.9175 11.9327 18.8933 12.811 17.7199 12.7211C16.6716 12.6407 15.8386 11.8077 15.7582 10.7593C15.7552 10.7593 15.753 10.761 15.75 10.761H15.0938C15.0938 10.9422 14.9468 11.0891 14.7656 11.0891H7.56656C7.33282 12.2107 6.23409 12.9304 5.11252 12.6966C4.30463 12.5283 3.6734 11.897 3.50503 11.0891H2.625C2.44379 11.0891 2.29688 10.9422 2.29688 10.761V8.13204C2.29688 7.95079 2.44379 7.80391 2.625 7.80391ZM17.8828 12.0718C18.6983 12.0718 19.3594 11.4107 19.3594 10.5953C19.3594 9.7798 18.6983 9.11871 17.8828 9.11871C17.0673 9.11871 16.4062 9.7798 16.4062 10.5953C16.4072 11.4104 17.0677 12.0709 17.8828 12.0718ZM15.0938 10.1031H15.75C15.7692 10.1051 15.7883 10.1089 15.8068 10.1146C16.0707 8.96806 17.214 8.25258 18.3605 8.51648C19.151 8.69842 19.7696 9.31358 19.9559 10.1031H20.3438V7.6579C20.3432 7.19639 19.9692 6.82237 19.5077 6.82184H15.0938V10.1031ZM15.0938 6.16559H19.2216L18.9755 3.21246H15.0938V6.16559ZM15.0938 2.55621H19.6875V2.4079C19.687 1.94639 19.3129 1.57237 18.8514 1.57184H15.0938V2.55621ZM4.11981 10.7462C4.16198 11.4969 4.78365 12.0836 5.53547 12.0823H5.5358C6.22424 12.0808 6.81208 11.585 6.92967 10.9067C6.87217 10.8062 6.87873 10.6813 6.94641 10.5874C6.90256 9.80687 6.23425 9.20964 5.45368 9.25349C4.67316 9.29733 4.07593 9.96564 4.11981 10.7462Z" fill="#333333"/>
<path d="M2.95312 2.88434H7.54688C7.72808 2.88434 7.875 3.03126 7.875 3.21246C7.875 3.39367 7.72808 3.54059 7.54688 3.54059H2.95312C2.77192 3.54059 2.625 3.39367 2.625 3.21246C2.625 3.03126 2.77192 2.88434 2.95312 2.88434Z" fill="#333333"/>
<path d="M2.29688 6.49371H9.51562C9.69683 6.49371 9.84375 6.64063 9.84375 6.82184C9.84375 7.00304 9.69683 7.14996 9.51562 7.14996H2.29688C2.11567 7.14996 1.96875 7.00304 1.96875 6.82184C1.96875 6.64063 2.11567 6.49371 2.29688 6.49371Z" fill="#333333"/>
<path d="M2.95312 4.52496H6.5625C6.74371 4.52496 6.89062 4.67188 6.89062 4.85309C6.89062 5.0343 6.74371 5.18121 6.5625 5.18121H2.95312C2.77192 5.18121 2.625 5.0343 2.625 4.85309C2.625 4.67188 2.77192 4.52496 2.95312 4.52496Z" fill="#333333"/>
<path d="M1.64062 3.54059H0.984375C0.803168 3.54059 0.65625 3.39367 0.65625 3.21246C0.65625 3.03126 0.803168 2.88434 0.984375 2.88434H1.64062C1.82183 2.88434 1.96875 3.03126 1.96875 3.21246C1.96875 3.39367 1.82183 3.54059 1.64062 3.54059Z" fill="#333333"/>
<path d="M0.65625 6.49371H1.3125C1.49371 6.49371 1.64062 6.64063 1.64062 6.82184C1.64062 7.00304 1.49371 7.14996 1.3125 7.14996H0.65625C0.475043 7.14996 0.328125 7.00304 0.328125 6.82184C0.328125 6.64063 0.475043 6.49371 0.65625 6.49371Z" fill="#333333"/>
<path d="M0.328125 4.52496H1.64062C1.82183 4.52496 1.96875 4.67188 1.96875 4.85309C1.96875 5.0343 1.82183 5.18121 1.64062 5.18121H0.328125C0.146918 5.18121 0 5.0343 0 4.85309C0 4.67188 0.146918 4.52496 0.328125 4.52496Z" fill="#333333"/>
</svg>
