<svg width="26" height="26" viewBox="0 0 26 26" fill="none" xmlns="http://www.w3.org/2000/svg">
<path fill-rule="evenodd" clip-rule="evenodd" d="M11.27 0.00384754C11.5381 0.00342801 11.8265 0.00355742 12.1377 0.00369707L12.6507 0.00384754C16.7598 0.00384754 17.2469 0.0185965 18.8696 0.092341C20.3701 0.160956 21.1845 0.411687 21.727 0.62234C22.4452 0.901287 22.9573 1.23474 23.4956 1.7734C24.0343 2.31205 24.3677 2.82506 24.6473 3.54327C24.858 4.08513 25.109 4.89952 25.1773 6.40007C25.251 8.02245 25.2671 8.5098 25.2671 12.6171C25.2671 16.7243 25.251 17.2117 25.1773 18.834C25.1087 20.3346 24.858 21.149 24.6473 21.6908C24.3684 22.409 24.0343 22.9205 23.4956 23.4588C22.957 23.9974 22.4456 24.3309 21.727 24.6098C21.1852 24.8215 20.3701 25.0716 18.8696 25.1402C17.2472 25.2139 16.7598 25.2299 12.6507 25.2299C8.54117 25.2299 8.05414 25.2139 6.43176 25.1402C4.93122 25.0709 4.11682 24.8202 3.574 24.6095C2.85579 24.3306 2.34278 23.9971 1.80413 23.4585C1.26547 22.9198 0.932016 22.4081 0.652428 21.6896C0.441775 21.1477 0.190723 20.3333 0.122429 18.8328C0.0486845 17.2104 0.0339355 16.723 0.0339355 12.6132C0.0339355 8.50339 0.0486845 8.0186 0.122429 6.39622C0.191044 4.89568 0.441775 4.08128 0.652428 3.53878C0.931375 2.82057 1.26547 2.30756 1.80413 1.76891C2.34278 1.23025 2.85579 0.896798 3.574 0.61721C4.1165 0.405595 4.93122 0.155505 6.43176 0.0865697C7.8515 0.022444 8.4017 0.00320629 11.27 0V0.00384754ZM20.8658 2.55938C19.8462 2.55938 19.019 3.38564 19.019 4.40556C19.019 5.42516 19.8462 6.25238 20.8658 6.25238C21.8854 6.25238 22.7126 5.42516 22.7126 4.40556C22.7126 3.38596 21.8854 2.55874 20.8658 2.55874V2.55938ZM4.74715 12.6203C4.74715 8.25563 8.28593 4.71685 12.6506 4.71685H12.6503C17.015 4.71685 20.5529 8.25563 20.5529 12.6203C20.5529 16.9851 17.0154 20.5222 12.6506 20.5222C8.28593 20.5222 4.74715 16.9851 4.74715 12.6203Z" fill="#7B818C"/>
<path fill-rule="evenodd" clip-rule="evenodd" d="M12.5337 7C15.2949 7 17.5337 9.46228 17.5337 12.5C17.5337 15.5374 15.2949 18 12.5337 18C9.77213 18 7.53369 15.5374 7.53369 12.5C7.53369 9.46228 9.77213 7 12.5337 7V7Z" fill="#7B818C"/>
</svg>
