<svg width="25" height="25" viewBox="0 0 25 25" fill="none" xmlns="http://www.w3.org/2000/svg">
<rect width="25" height="25" rx="12.5" fill="#BE2E21"/>
<path d="M9.8 13.45C9.13733 13.45 8.60067 13.2073 8.19 12.722C7.78867 12.2273 7.588 11.5833 7.588 10.79C7.588 9.99667 7.78867 9.35733 8.19 8.872C8.60067 8.37733 9.13733 8.13 9.8 8.13C10.4533 8.13 10.9853 8.37267 11.396 8.858C11.8067 9.34333 12.012 9.98733 12.012 10.79C12.012 11.5927 11.8067 12.2367 11.396 12.722C10.9853 13.2073 10.4533 13.45 9.8 13.45ZM15.736 8.2H16.562L9.87 18H9.044L15.736 8.2ZM9.8 12.82C10.2573 12.82 10.6213 12.6427 10.892 12.288C11.172 11.924 11.312 11.4247 11.312 10.79C11.312 10.1553 11.172 9.66067 10.892 9.306C10.6213 8.942 10.2573 8.76 9.8 8.76C9.33333 8.76 8.96467 8.942 8.694 9.306C8.42333 9.67 8.288 10.1647 8.288 10.79C8.288 11.4153 8.42333 11.91 8.694 12.274C8.96467 12.638 9.33333 12.82 9.8 12.82ZM15.806 18.07C15.1527 18.07 14.6207 17.8273 14.21 17.342C13.7993 16.8473 13.594 16.2033 13.594 15.41C13.594 14.6167 13.7993 13.9773 14.21 13.492C14.6207 12.9973 15.1527 12.75 15.806 12.75C16.4687 12.75 17.0007 12.9973 17.402 13.492C17.8127 13.9773 18.018 14.6167 18.018 15.41C18.018 16.2033 17.8127 16.8473 17.402 17.342C17.0007 17.8273 16.4687 18.07 15.806 18.07ZM15.806 17.44C16.2727 17.44 16.6413 17.258 16.912 16.894C17.1827 16.53 17.318 16.0353 17.318 15.41C17.318 14.7847 17.1827 14.29 16.912 13.926C16.6413 13.562 16.2727 13.38 15.806 13.38C15.3487 13.38 14.98 13.562 14.7 13.926C14.4293 14.2807 14.294 14.7753 14.294 15.41C14.294 16.0447 14.4293 16.544 14.7 16.908C14.98 17.2627 15.3487 17.44 15.806 17.44Z" fill="white"/>
</svg>
