<svg width="17" height="17" viewBox="0 0 17 17" fill="none" xmlns="http://www.w3.org/2000/svg">
<g clip-path="url(#clip0)">
<path fill-rule="evenodd" clip-rule="evenodd" d="M11.0947 11.0946C11.1934 10.9958 11.3106 10.9174 11.4396 10.864C11.5686 10.8105 11.7068 10.783 11.8465 10.783C11.9861 10.783 12.1243 10.8105 12.2533 10.864C12.3823 10.9174 12.4995 10.9958 12.5982 11.0946L16.6888 15.1852C16.8882 15.3844 17.0002 15.6547 17.0003 15.9365C17.0004 16.2184 16.8886 16.4887 16.6893 16.6881C16.4901 16.8875 16.2198 16.9995 15.938 16.9996C15.6561 16.9997 15.3858 16.8879 15.1864 16.6886L11.0958 12.598C10.997 12.4993 10.9186 12.3822 10.8652 12.2532C10.8117 12.1242 10.7842 11.9859 10.7842 11.8463C10.7842 11.7067 10.8117 11.5684 10.8652 11.4394C10.9186 11.3104 10.997 11.1933 11.0958 11.0946H11.0947Z" fill="#7B818C"/>
<path fill-rule="evenodd" clip-rule="evenodd" d="M6.90625 12.75C7.67366 12.75 8.43356 12.5988 9.14256 12.3052C9.85155 12.0115 10.4958 11.581 11.0384 11.0384C11.581 10.4958 12.0115 9.85155 12.3052 9.14256C12.5988 8.43356 12.75 7.67366 12.75 6.90625C12.75 6.13884 12.5988 5.37894 12.3052 4.66994C12.0115 3.96095 11.581 3.31674 11.0384 2.77409C10.4958 2.23145 9.85155 1.801 9.14256 1.50733C8.43356 1.21365 7.67366 1.0625 6.90625 1.0625C5.35639 1.0625 3.87001 1.67818 2.77409 2.77409C1.67818 3.87001 1.0625 5.35639 1.0625 6.90625C1.0625 8.45611 1.67818 9.94249 2.77409 11.0384C3.87001 12.1343 5.35639 12.75 6.90625 12.75ZM13.8125 6.90625C13.8125 8.7379 13.0849 10.4945 11.7897 11.7897C10.4945 13.0849 8.7379 13.8125 6.90625 13.8125C5.0746 13.8125 3.31797 13.0849 2.02279 11.7897C0.727621 10.4945 0 8.7379 0 6.90625C0 5.0746 0.727621 3.31797 2.02279 2.02279C3.31797 0.727621 5.0746 0 6.90625 0C8.7379 0 10.4945 0.727621 11.7897 2.02279C13.0849 3.31797 13.8125 5.0746 13.8125 6.90625Z" fill="#7B818C"/>
</g>
<defs>
<clipPath id="clip0">
<rect width="17" height="17" rx="5" fill="white"/>
</clipPath>
</defs>
</svg>
