<svg width="17" height="14" viewBox="0 0 17 14" fill="none" xmlns="http://www.w3.org/2000/svg">
<path d="M17 1.75881C16.3743 2.03606 15.7029 2.22408 14.9975 2.30803C15.7178 1.87672 16.2691 1.19261 16.5304 0.379944C15.8548 0.779361 15.1091 1.06939 14.3144 1.22661C13.6781 0.547805 12.7731 0.125 11.7692 0.125C9.84322 0.125 8.28164 1.68658 8.28164 3.61147C8.28164 3.88447 8.31244 4.15111 8.37194 4.40608C5.474 4.26053 2.90431 2.87211 1.18444 0.762361C0.883806 1.27653 0.712778 1.87564 0.712778 2.51517C0.712778 3.72514 1.32892 4.79275 2.26375 5.41736C1.69222 5.39825 1.15469 5.24103 0.684111 4.97969V5.02325C0.684111 6.7123 1.88664 8.12197 3.48114 8.4428C3.189 8.52141 2.88094 8.56497 2.56225 8.56497C2.33706 8.56497 2.11928 8.54266 1.90575 8.50016C2.34978 9.88647 3.63731 10.8946 5.16278 10.9222C3.96981 11.8571 2.46558 12.4126 0.831778 12.4126C0.550278 12.4126 0.273 12.3956 0 12.3648C1.54353 13.356 3.376 13.9339 5.3455 13.9339C11.7607 13.9339 15.2674 8.62022 15.2674 4.01197L15.2557 3.5605C15.9409 3.0718 16.5336 2.4578 17 1.75881Z" fill="#9E9E9E"/>
</svg>
