<svg width="11" height="15" viewBox="0 0 11 15" fill="none" xmlns="http://www.w3.org/2000/svg">
<path d="M4.7613 10.5656C3.59845 10.4443 2.54997 10.1579 1.6523 9.45583C1.54092 9.36848 1.42592 9.28428 1.32428 9.18672C0.931374 8.80937 0.891785 8.37719 1.20268 7.93181C1.46865 7.55069 1.91513 7.44873 2.3792 7.66757C2.46906 7.70999 2.55468 7.76293 2.63669 7.8198C4.30964 8.96929 6.60784 9.00103 8.28708 7.87148C8.45345 7.74392 8.63128 7.63992 8.8374 7.58682C9.23816 7.48392 9.6119 7.63112 9.82697 7.98177C10.0727 8.38221 10.0695 8.77308 9.7668 9.08398C9.30241 9.56061 8.74392 9.90545 8.12338 10.1461C7.53662 10.3736 6.89392 10.4881 6.25783 10.5642C6.35381 10.6686 6.39906 10.72 6.45907 10.7803C7.3228 11.6481 8.19031 12.5124 9.05121 13.3828C9.34451 13.6794 9.40578 14.0472 9.24429 14.3922C9.06771 14.7692 8.67244 15.0173 8.28488 14.9907C8.03933 14.9738 7.84783 14.8516 7.67769 14.6802C7.02589 14.0243 6.36183 13.3805 5.72322 12.7122C5.53737 12.5178 5.44798 12.5546 5.28397 12.7233C4.62824 13.3984 3.96182 14.0631 3.29148 14.724C2.99047 15.0208 2.63229 15.0742 2.28321 14.9047C1.91214 14.7248 1.67602 14.346 1.69425 13.9654C1.70682 13.7079 1.83344 13.5112 2.01017 13.3348C2.86495 12.4812 3.71737 11.6255 4.57011 10.7706C4.62651 10.7137 4.67914 10.6534 4.7613 10.5656Z" fill="#9E9E9E"/>
<path d="M5.47057 7.59247C3.39607 7.5854 1.695 5.86563 1.7071 3.78784C1.71903 1.6871 3.42121 -0.00579775 5.51612 1.49239e-05C7.61528 0.0056705 9.30017 1.72292 9.28965 3.84549C9.27897 5.91905 7.56611 7.59969 5.47057 7.59247ZM7.35591 3.79286C7.3523 2.76119 6.53067 1.93988 5.50104 1.93893C4.46277 1.93783 3.63376 2.77407 3.64177 3.81517C3.64947 4.84292 4.47817 5.65842 5.51063 5.65465C6.53994 5.65103 7.35937 4.82438 7.35591 3.79286Z" fill="#9E9E9E"/>
</svg>
