<svg width="19" height="12" viewBox="0 0 19 12" fill="none" xmlns="http://www.w3.org/2000/svg">
<path d="M3.97045 1.56796C4.47907 2.85623 5.11485 4.04145 5.97951 5.1236C6.08124 5.27819 6.23382 5.40702 6.38641 5.51008C6.61529 5.66467 6.81874 5.61314 6.89503 5.35548C6.99676 5.09783 7.07305 4.55676 7.07305 4.27333C7.09848 3.5519 7.07305 3.06236 7.02219 2.34092C6.99676 1.87714 6.84417 1.4649 6.15753 1.33607C5.95408 1.3103 5.92865 1.12995 6.05581 0.949587C6.33555 0.58887 6.71702 0.537339 7.14935 0.511573C7.83599 0.485808 8.52263 0.511573 9.20928 0.511573C9.48902 0.511573 9.76876 0.537339 10.0485 0.58887C10.4045 0.666166 10.608 0.923821 10.6589 1.28454C10.6843 1.4649 10.7097 1.64525 10.7097 1.85138C10.6843 2.65011 10.6589 3.44884 10.6334 4.24757C10.6334 4.55676 10.6589 4.89171 10.7097 5.17513C10.8114 5.58737 11.0912 5.7162 11.3709 5.40702C11.7524 5.02053 12.0576 4.58252 12.3627 4.14451C12.9731 3.29425 13.38 2.39245 13.736 1.49066C13.914 1.02688 14.0666 0.923821 14.5753 0.923821C15.5162 0.923821 16.4572 0.923821 17.3981 0.923821C17.5761 0.923821 17.7287 0.949587 17.9067 1.00112C18.1611 1.07841 18.2628 1.28454 18.2119 1.56796C18.0593 2.18633 17.7287 2.72741 17.3727 3.24272C16.7878 4.06721 16.1774 4.86594 15.5925 5.69044C15.5162 5.7935 15.4399 5.89656 15.3891 6.02539C15.1602 6.43764 15.1856 6.66952 15.5162 7.00448C16.0248 7.54555 16.5843 8.0351 17.0675 8.60194C17.4236 9.01418 17.7542 9.42643 18.0593 9.89021C18.4154 10.4571 18.1865 11.0239 17.5253 11.1012C17.0929 11.1527 15.033 11.1012 14.9059 11.1012C14.3464 11.1012 13.8632 10.8951 13.4563 10.5086C13.024 10.0706 12.6171 9.60679 12.2102 9.16878C12.083 9.03995 11.9558 8.91112 11.8033 8.78229C11.4472 8.52464 11.1166 8.57617 10.964 8.98842C10.8369 9.34914 10.7097 10.2767 10.7097 10.354C10.6843 10.7662 10.43 11.0239 9.97221 11.0497C8.64979 11.127 7.37823 10.9724 6.18296 10.3282C5.16571 9.78715 4.37735 9.01418 3.66527 8.11239C2.5463 6.66953 1.68164 5.09783 0.893271 3.4746C0.842409 3.39731 0.0540413 1.64525 0.0286101 1.56796C-0.0476835 1.28454 0.0286101 1.02688 0.257491 0.949587C0.410078 0.898056 3.08035 0.949587 3.10579 0.949587C3.48725 0.923821 3.767 1.10418 3.97045 1.56796Z" fill="#9E9E9E"/>
</svg>
