<svg width="32" height="13" viewBox="0 0 32 13" fill="none" xmlns="http://www.w3.org/2000/svg">
<path d="M-1.71661e-05 10.2978L0.00192642 6.99916L0.753859 4.64054L4.27208 0.668761C4.27208 0.668761 4.64929 0.27896 5.49035 0.206311C11.1 -0.226432 17.8226 0.0803574 18.8312 0.584546C19.8394 1.08883 22.865 3.86223 22.865 3.86223L30.0138 5.69454L30.6813 7.56008L31.3057 8.10721L30.8782 10.371H30.3717V11.1309H27.8148C27.4047 12.2228 26.3512 13 25.116 13C23.6097 13 22.3737 11.8441 22.2453 10.3712L7.56596 10.3713C7.43741 11.8443 6.20183 13 4.69538 13C3.46008 13 2.40672 12.2228 1.99656 11.1309H0.453272V10.3713H0.00229645C0.00229645 10.3505 0.0030365 10.33 0.00396347 10.3091L-1.71661e-05 10.2978ZM25.1162 11.1811C25.703 11.1811 26.1797 10.7039 26.1797 10.1165C26.1797 9.53102 25.703 9.05413 25.1162 9.05413C24.5293 9.05413 24.0521 9.53102 24.0521 10.1165C24.0521 10.7038 24.5293 11.1811 25.1162 11.1811ZM12.7182 4.02992H19.7997L17.7909 1.5187C17.7909 1.5187 14.5273 1.24477 12.7181 1.21728V4.02992H12.7182ZM10.8972 4.02992V1.21728C8.0471 1.15453 5.93771 1.42754 5.93771 1.42754L3.81564 4.02983L10.8972 4.02992ZM4.69566 11.1811C5.28239 11.1811 5.75937 10.7039 5.75937 10.1165C5.75937 9.53102 5.28258 9.05413 4.69566 9.05413C4.10892 9.05413 3.63157 9.53102 3.63157 10.1165C3.63175 10.7038 4.10892 11.1811 4.69566 11.1811Z" fill="#64B734"/>
</svg>
