<svg width="26" height="20" viewBox="0 0 26 20" fill="none" xmlns="http://www.w3.org/2000/svg">
<path d="M24.588 8.12727C24.5481 8.07555 24.5096 8.02559 24.4729 7.97718C24.0146 7.37327 23.6441 6.69354 23.3172 6.09383C22.9967 5.5058 22.694 4.95037 22.3634 4.56628C21.626 3.70936 20.9322 3.29286 20.2423 3.29286H16.8353C16.8321 3.29292 16.5066 3.29688 16.1149 3.29688H15.5594C15.1623 3.29688 14.816 3.56648 14.7173 3.95251L14.7127 3.97052V11.4929L14.7135 11.5083C14.7139 11.5129 14.7223 11.6207 14.6374 11.7134C14.5437 11.8157 14.3638 11.8698 14.1171 11.8698H0.846997C0.379953 11.8698 0 12.2272 0 12.6666V15.4055C0 15.8449 0.379953 16.2023 0.846997 16.2023H3.76145C3.91414 17.9471 5.3824 19.3205 7.16638 19.3205C8.95036 19.3205 10.4187 17.9471 10.5714 16.2023H15.4491C15.6017 17.9471 17.07 19.3205 18.854 19.3205C20.638 19.3205 22.1064 17.9471 22.259 16.2023H24.4758C25.3162 16.2023 25.9999 15.5187 25.9999 14.6783V12.0632C26 9.95854 25.1503 8.85647 24.588 8.12727ZM20.1288 15.9021C20.1288 16.6048 19.5569 17.1765 18.854 17.1765C18.1513 17.1765 17.5796 16.6048 17.5796 15.9021C17.5796 15.1994 18.1513 14.6277 18.854 14.6277C19.5569 14.6277 20.1288 15.1994 20.1288 15.9021ZM23.06 9.26713C23.0334 9.31112 22.9573 9.33007 22.8418 9.32269L16.9848 9.32239V4.54485H19.5169C20.1983 4.54485 20.6811 4.84143 21.1834 5.56851C21.5175 6.05208 22.4021 7.57467 22.4472 7.65237C22.4786 7.71301 22.5109 7.77465 22.5435 7.83689C22.7987 8.32466 23.1844 9.06159 23.06 9.26713ZM7.16638 14.6277C7.86931 14.6277 8.44116 15.1994 8.44116 15.9021C8.44116 16.6048 7.86931 17.1765 7.16638 17.1765C6.46369 17.1765 5.89202 16.6048 5.89202 15.9021C5.89202 15.1994 6.46369 14.6277 7.16638 14.6277Z" fill="#64B734"/>
<path d="M1.78493 10.6581H5.79997C6.20697 10.6581 6.53803 10.327 6.53803 9.92V6.96775C6.53803 6.56076 6.20697 6.22969 5.79997 6.22969H1.78493C1.37794 6.22969 1.04688 6.56076 1.04688 6.96775V9.92C1.04687 10.327 1.378 10.6581 1.78493 10.6581Z" fill="#64B734"/>
<path d="M8.45681 10.6581H12.4719C12.8789 10.6581 13.2099 10.327 13.2099 9.92V6.96775C13.2099 6.56076 12.8789 6.22969 12.4719 6.22969H8.45681C8.04981 6.22969 7.71875 6.56076 7.71875 6.96775V9.92C7.71875 10.327 8.04987 10.6581 8.45681 10.6581Z" fill="#64B734"/>
<path d="M1.78493 5.10784H5.79997C6.20697 5.10784 6.53803 4.77678 6.53803 4.36979V1.41755C6.53803 1.01055 6.20697 0.679489 5.79997 0.679489H1.78493C1.37794 0.679489 1.04688 1.01055 1.04688 1.41755V4.36979C1.04687 4.77678 1.378 5.10784 1.78493 5.10784Z" fill="#64B734"/>
<path d="M8.45681 5.10784H12.4719C12.8789 5.10784 13.2099 4.77678 13.2099 4.36979V1.41755C13.2099 1.01055 12.8789 0.679489 12.4719 0.679489H8.45681C8.04981 0.679489 7.71875 1.01055 7.71875 1.41755V4.36979C7.71875 4.77678 8.04987 5.10784 8.45681 5.10784Z" fill="#64B734"/>
</svg>
