<svg width="28" height="27" viewBox="0 0 28 27" fill="none" xmlns="http://www.w3.org/2000/svg">
<path fill-rule="evenodd" clip-rule="evenodd" d="M15.9275 0.0979843C17.4288 0.28535 18.642 0.64701 19.9731 1.29628C21.2823 1.93686 22.1202 2.54254 23.2287 3.64496C24.2673 4.68641 24.8434 5.47514 25.4544 6.69957C26.3054 8.40774 26.7898 10.4383 26.8727 12.6737C26.9033 13.4362 26.8815 13.6062 26.7069 13.8241C26.3752 14.2468 25.6464 14.177 25.3977 13.7021C25.3191 13.5452 25.2972 13.4102 25.2711 12.8001C25.2274 11.8632 25.162 11.2575 25.0311 10.5342C24.5161 7.69747 23.1545 5.43156 20.9811 3.80619C19.1701 2.44668 17.2978 1.78431 14.8453 1.64053C14.0161 1.5926 13.8721 1.56213 13.6844 1.41831C13.3352 1.14377 13.3178 0.498888 13.6538 0.198224C13.859 0.0108175 14.003 -0.0153131 14.7143 0.0064764C15.0853 0.0195417 15.6308 0.0631208 15.9275 0.0979843Z" fill="#7B818C"/>
<path fill-rule="evenodd" clip-rule="evenodd" d="M5.95131 0.568636C6.10409 0.620907 6.33974 0.742895 6.47504 0.830063C7.30416 1.37913 9.6128 4.32911 10.3678 5.80198C10.7998 6.64295 10.9438 7.26608 10.8086 7.72798C10.6689 8.22473 10.4376 8.4862 9.40333 9.31849C8.98873 9.65398 8.6003 9.99823 8.53926 10.0897C8.38213 10.3163 8.25553 10.7608 8.25553 11.0745C8.25996 11.8022 8.73126 13.1226 9.35098 14.1379C9.83097 14.9266 10.6907 15.9375 11.5417 16.7131C12.5411 17.6283 13.4226 18.2513 14.4177 18.7438C15.6963 19.3799 16.4775 19.5411 17.0493 19.2754C17.1932 19.21 17.3459 19.1228 17.394 19.0837C17.4376 19.0444 17.7737 18.6348 18.1403 18.1817C18.8472 17.2927 19.0087 17.1489 19.4931 16.9833C20.1085 16.7742 20.7369 16.8308 21.3697 17.1533C21.8497 17.4017 22.8971 18.0509 23.5735 18.5215C24.4638 19.1446 26.3665 20.6959 26.6241 21.0053C27.0779 21.5631 27.1565 22.2776 26.851 23.0664C26.528 23.8986 25.2712 25.4587 24.394 26.1254C23.5997 26.7267 23.0368 26.9576 22.2949 26.9925C21.6839 27.023 21.4308 26.9707 20.6496 26.6482C14.5224 24.1252 9.63027 20.3604 5.74618 15.188C3.71692 12.4864 2.17199 9.68451 1.11584 6.77806C0.500551 5.08302 0.470024 4.34658 0.976195 3.47945C1.19445 3.11344 2.12399 2.20706 2.80041 1.70161C3.92639 0.864944 4.44569 0.555546 4.86028 0.46842C5.14394 0.407402 5.63706 0.45533 5.95131 0.568636Z" fill="#7B818C"/>
<path fill-rule="evenodd" clip-rule="evenodd" d="M16.2289 3.2569C18.8779 3.64469 20.929 4.87354 22.2732 6.86926C23.0282 7.99349 23.4995 9.31381 23.661 10.73C23.7177 11.2485 23.7177 12.1941 23.6566 12.351C23.5998 12.4991 23.4165 12.6996 23.2594 12.7824C23.0892 12.8695 22.7271 12.8608 22.5263 12.7562C22.1902 12.5863 22.0899 12.3161 22.0899 11.5841C22.0899 10.4555 21.7975 9.26588 21.2913 8.34208C20.7152 7.28757 19.8773 6.41608 18.8561 5.81036C17.9789 5.28747 16.6828 4.89967 15.5001 4.80382C15.0724 4.76892 14.8367 4.68179 14.6753 4.49442C14.4266 4.21117 14.4003 3.82771 14.6098 3.50964C14.8367 3.15667 15.1859 3.10002 16.2289 3.2569Z" fill="#7B818C"/>
<path fill-rule="evenodd" clip-rule="evenodd" d="M17.1583 6.54698C18.0181 6.73 18.6771 7.05681 19.24 7.58408C19.9644 8.26816 20.3616 9.09611 20.5362 10.2857C20.654 11.0614 20.606 11.3664 20.331 11.6191C20.0736 11.8544 19.5979 11.8631 19.3098 11.6409C19.1004 11.484 19.0349 11.3184 18.9869 10.8696C18.9302 10.2726 18.8254 9.85433 18.6466 9.46649C18.2625 8.64293 17.5861 8.21589 16.4427 8.07645C15.9058 8.01107 15.7444 7.95008 15.5698 7.7453C15.2512 7.36619 15.3734 6.75179 15.8142 6.52518C15.9801 6.4424 16.0499 6.43367 16.4164 6.45546C16.6434 6.46854 16.9795 6.50774 17.1583 6.54698Z" fill="#7B818C"/>
</svg>
